<?xml version="1.0" encoding="utf-8"?>
<!-- Generator: Adobe Illustrator 22.0.0, SVG Export Plug-In . SVG Version: 6.00 Build 0)  -->
<svg version="1.1" id="Layer_1" xmlns="http://www.w3.org/2000/svg" xmlns:xlink="http://www.w3.org/1999/xlink" x="0px" y="0px"
	 viewBox="0 0 1000 1000" style="enable-background:new 0 0 1000 1000;" xml:space="preserve">
<style type="text/css">
	.st0{fill:#FFFFFF;stroke:#FFFFFF;stroke-width:21;stroke-miterlimit:10;}
</style>
<g id="HGhzgg.tif">
	<g>
		<g>
			<path class="st0" d="M96,600.7c0-67.4,0-134.8,0-202.2c0.2-1.4,0.5-2.8,0.5-4.2c0.4-14.5,0.6-29,1.2-43.4c0.8-23,2-46,6.3-68.7
				c6.1-32.5,16.9-63.3,36-90.5c37.2-53,89.4-80.6,152.4-90.1c28.2-4.2,56.6-5.3,85-5.4c82.1-0.4,164.3-0.5,246.4,0
				c31.4,0.2,62.9,1.2,94,6.9c32.5,6,63.3,16.8,90.6,35.9c53.1,37.2,80.8,89.6,90.3,152.7c4.1,27.3,5,54.8,5.4,82.3
				c1.2,96.6,2.4,193.2-1.4,289.8c-0.9,23.1-3.4,45.9-8.7,68.4c-12.3,51.7-38.8,94.3-82.1,125.7c-36.5,26.5-78.3,38.5-122.7,42.1
				c-27.4,2.2-54.9,2.5-82.4,3.6c-1.7,0.1-3.4,0.3-5.1,0.5c-67.4,0-134.8,0-202.2,0c-0.9-0.2-1.8-0.4-2.7-0.5
				c-20.5-0.7-41-1.2-61.6-1.9c-23.7-0.9-47.2-3.7-70.3-9.4c-51.9-13-94.2-40.5-124.9-84.6c-25-35.8-36.4-76.5-39.8-119.5
				c-2.2-27.5-2.5-55.2-3.6-82.8C96.4,603.7,96.2,602.2,96,600.7z M832.8,499.5c-0.5-44.4-0.7-88.7-1.5-133.1
				c-0.4-23.7-1.1-47.4-5.4-70.8c-4-21.9-10.7-42.9-23.3-61.5c-21.7-32.1-52.6-50.3-90-58.5c-25.4-5.5-51.2-6.8-76.9-6.9
				c-90.2-0.4-180.3-0.4-270.5,0c-23,0.1-46.1,1.1-68.8,5.4c-22.8,4.2-44.6,11.4-63.8,25c-30.7,21.8-48.2,52.1-56.1,88.5
				c-5.4,25-6.5,50.4-6.9,75.8c-1.5,102-2.9,204,1.5,306c0.9,21.1,4.2,41.8,11,62c11.8,34.9,33.8,61.2,66.5,78.2
				c20.1,10.4,41.8,16,64.3,17.7c25.3,1.9,50.7,3.7,76.1,3.7c82.7,0.3,165.3-0.1,248-0.6c22.6-0.2,45.3-1.2,67.6-5.3
				c21.8-4,42.6-10.7,61.1-23.2c32.2-21.8,50.6-52.7,58.7-90.3c5.6-26,6.5-52.5,7-78.9C832.2,588.2,832.4,543.9,832.8,499.5z"/>
			<path class="st0" d="M500.5,707.2c-114.6,0-207.9-93.3-207.7-207.8C293,384.9,386,291.9,500.4,291.9
				c114.6,0,207.9,93.3,207.7,207.8C707.9,614.3,614.9,707.1,500.5,707.2z M500.2,634.7c74.5,0.1,135.1-60.1,135.3-134.4
				c0.2-75-59.9-135.6-134.7-135.9c-74.6-0.2-135.4,60.1-135.5,134.6C365.1,574,425.4,634.6,500.2,634.7z"/>
			<path class="st0" d="M716.1,332.4c-26.7,0.1-48.4-21.5-48.5-48.3s21.5-48.4,48.3-48.5c26.8,0,48.4,21.5,48.5,48.3
				C764.4,310.8,742.9,332.3,716.1,332.4z"/>
		</g>
	</g>
</g>
</svg>
