<?xml version="1.0" encoding="utf-8"?>
<!-- Generator: Adobe Illustrator 22.0.0, SVG Export Plug-In . SVG Version: 6.00 Build 0)  -->
<svg version="1.1" id="Layer_1" xmlns="http://www.w3.org/2000/svg" xmlns:xlink="http://www.w3.org/1999/xlink" x="0px" y="0px"
	 viewBox="0 0 1000 1000" style="enable-background:new 0 0 1000 1000;" xml:space="preserve">
<style type="text/css">
	.st0{fill:#FFFFFF;}
</style>
<path class="st0" d="M807.8,414.9c55.3-50.1,130.7-31.7,163.8,17.7c33.9,50.5,20.8,126.6-44.9,158.8c4.6,29.8,2.8,59.2-5.5,88.3
	c-16,56.7-50.3,100.7-95.2,137.2c-59.2,48-127.9,76.1-202,92c-46.1,9.8-93,14.1-140.2,12.6c-89.9-2.9-175.5-22.4-254.2-67
	c-53.2-30.1-98.5-69.1-129-123.1c-23.9-42.5-33.8-87.8-27.4-136.6c0.3-2.1-2.4-5.3-4.5-6.5c-33.6-18.6-53-46.8-57.7-84.7
	c-6.4-52.9,31.3-104.7,83.7-115.7c34.4-7.2,65.3,0.7,92.5,22.9c1.7,1.4,3.3,2.6,5.2,4.1c42.4-30.1,88.7-51.5,138.3-66.5
	c49.4-14.8,100-22.4,151.9-24.1c5.3-25.7,10.7-51,16.2-76.5c12.4-58.7,25-117.6,37.4-176.3c3.1-14.8,12.4-20.7,27.4-17.4
	c55.8,11.9,111.4,23.6,167.2,35.6c5.5,1.2,7.7-0.2,10.7-4.6c17.6-27.2,43-39.8,75.1-35.6c30.3,4,51.5,21.2,61.8,49.9
	c10.7,29.6,4.6,56.8-17,79.4c-21.4,22.2-48.2,28.9-77.7,19.8c-29.6-9.1-47.4-30.3-52.7-61c-1-5.9-2.9-8.8-9.3-10.2
	c-49.9-10.3-99.9-21-150.7-31.9c-16.2,76.1-32.2,151.9-48.6,228.5C625.8,329.4,722.4,355.2,807.8,414.9z M330.5,645.3
	c41.3,0.9,76.3-32.5,77.3-74.2c1-41.7-32.7-77-74.4-78c-42.2-1-76.6,32.4-77.8,75.1C254.4,609.7,288.1,644.3,330.5,645.3z
	 M744.3,569.2c0-41.8-34.3-76.3-75.9-76.3c-41.7,0-76.3,34.6-76.3,76.1c0,41.8,34.1,75.9,76.1,76.1
	C710.2,645.3,744.3,611.4,744.3,569.2z M500.1,827c36.3,0,72-4.3,106.8-14.8c27.2-8.1,52.7-20,73.4-40.1c8.6-8.3,9.1-20.1,1.5-28.2
	c-7.4-7.9-18.9-8.4-27.6-0.5c-16.2,15-35.3,24.3-56.1,30.5c-56.5,17-113.7,18.6-171.3,6.5c-30.1-6.4-58.7-16.4-82.1-38.1
	c-7.7-7.2-19.5-6-26.5,1.5c-7.1,7.6-7.1,19.5,0.7,27.2c15.3,15.5,34.1,26.2,54.2,33.9C414,821.2,456.5,826.8,500.1,827z"/>
<path d="M330.5,645.3c-42.4-1-76.1-35.6-74.9-77.1c1.2-42.7,35.8-76.1,77.8-75.1c41.7,1,75.4,36.3,74.4,78
	C406.8,612.6,371.8,646.2,330.5,645.3z"/>
<path d="M744.3,569.2c0,42-34.1,76.1-76.1,75.9c-42-0.2-76.1-34.3-76.1-76.1c0-41.5,34.6-76.1,76.3-76.1
	C710,493.1,744.3,527.4,744.3,569.2z"/>
<path d="M500.1,827c-43.6-0.2-86.1-5.9-126.9-21.9c-20.1-7.9-38.9-18.4-54.2-33.9c-7.7-7.7-7.7-19.6-0.7-27.2
	c7.1-7.6,18.6-8.8,26.5-1.5c23.2,21.7,52,31.7,82.1,38.1c57.5,12.1,114.9,10.5,171.3-6.5c20.8-6.2,39.9-15.7,56.1-30.5
	c8.6-7.9,20.1-7.4,27.6,0.5c7.6,7.9,7.1,19.8-1.5,28.2c-20.7,20.1-46.1,31.9-73.4,40.1C572.1,822.7,536.4,827.2,500.1,827z"/>
</svg>
