<?xml version="1.0" encoding="utf-8"?>
<!-- Generator: Adobe Illustrator 22.0.0, SVG Export Plug-In . SVG Version: 6.00 Build 0)  -->
<svg version="1.1" id="Layer_1" xmlns="http://www.w3.org/2000/svg" xmlns:xlink="http://www.w3.org/1999/xlink" x="0px" y="0px"
	 viewBox="0 0 1000 1000" style="enable-background:new 0 0 1000 1000;" xml:space="preserve">
<style type="text/css">
	.st0{fill:#FFFFFF;}
</style>
<path class="st0" d="M503.4,888.2c-106.1,0-212.3,2.4-318.3-0.7c-90.3-2.6-128-41.8-140.4-131.5C27.1,627.6,27.9,499.6,46,371.5
	c10.1-71.4,49.9-113,118.3-119.2c219-19.5,438.3-20.9,657.3-1.1c98.2,8.9,131.9,44,142.4,150.2c12.1,121.1,14.1,242.5-5.2,363.4
	c-12.9,81.3-51.1,119.8-133.7,122.3c-107.2,3.4-214.6,0.8-321.9,0.8C503.4,887.9,503.4,888,503.4,888.2z M407.2,709.6
	c85-48.4,163.8-93.4,247.1-140.9c-85.4-48.4-164.6-93.3-247.1-140C407.2,524.4,407.2,613.5,407.2,709.6z"/>
<path d="M377.2,772.3c0-137.7,0-265.3,0-402.3c118.1,67,231.5,131.2,353.9,200.6C611.8,638.6,499,703,377.2,772.3z"/>
</svg>
