<?xml version="1.0" encoding="utf-8"?>
<!-- Generator: Adobe Illustrator 22.0.0, SVG Export Plug-In . SVG Version: 6.00 Build 0)  -->
<svg version="1.1" id="Layer_1" xmlns="http://www.w3.org/2000/svg" xmlns:xlink="http://www.w3.org/1999/xlink" x="0px" y="0px"
	 viewBox="0 0 1000 1000" style="enable-background:new 0 0 1000 1000;" xml:space="preserve">
<style type="text/css">
	.st0{fill:#4C4C4C;}
	.st1{fill:#FFFFFF;}
</style>
<path class="st0" d="M119.1,573.8c-1-0.3-2.1-0.6-3.1-0.8c0-0.3,0-0.7,0-1c1.8,0.1,3.5,0,5.2,0.8
	C120.8,573.8,119.8,573.5,119.1,573.8z"/>
<path class="st1" d="M57,820.7c2.8-1.3,5.7-2.7,8.5-4c111.8,5.5,207.2-38.6,251.2-78.5c-91.6-16.7-151.5-62.8-167.7-130
	c25.5,4.1,50.6,3.6,80.5-3.9c-44.6-12.7-80-33.2-106.7-66.4c-27-33.6-40-72.3-41.8-117.4c26.5,9.5,51.2,21.6,81.3,20.6
	c-81.7-68.7-98.8-150.6-55.7-248.8c36,41.4,73.4,76.9,116.6,106c77.4,52.2,163,80.6,255.5,89.4c8.9,0.9,14.2,2,12.1-11.9
	C474,264.1,550.6,167.4,663,159.1c51.7-3.8,98.1,13,136.5,48.5c8.3,7.6,15.2,10.2,26.3,7.2c34.6-9.1,67.5-21.9,102-41.5
	c-14.2,44.6-41.5,75.2-79.1,101.5c38.1-1.6,69-17.6,102.3-23.6c-23,31.8-49.3,60.7-81.1,83.9c-9,6.5-8.6,13.8-8.6,22.5
	c-0.2,138.5-45.1,260.9-136.1,365.3c-90.8,104.2-206.7,159.8-344.1,172C264.9,905,157,880.6,57,820.7z"/>
</svg>
